<?xml version="1.0" encoding="utf-8" ?>
<!-- Generator: Assembly 1.0 - http://assemblyapp.co -->
<svg version="1.1" xmlns="http://www.w3.org/2000/svg" xmlns:xlink="http://www.w3.org/1999/xlink" width="300" height="300" viewBox="0 0 300 300">
	<g id="widget" transform="matrix(1,0,0,1,150,150)">
		<path d="M-62.6352,-5.91545 Q-62.6352,-10.0911 -63.9401,-16.6156Q-65.245,-23.1402 -69.1597,-29.4037Q-73.0744,-35.6672 -80.2078,-40.1039Q-87.3413,-44.5405 -98.9984,-44.5405Q-107.872,-44.5405 -115.527,-41.3218Q-123.183,-38.103 -128.75,-32.1875Q-134.318,-26.2719 -137.537,-17.7466Q-140.755,-9.2212 -140.755,1.392Q-140.755,10.4393 -137.711,18.0947Q-134.666,25.7502 -129.098,31.3177Q-123.531,36.8853 -115.614,40.0171Q-107.698,43.1489 -97.9545,43.1489Q-94.8227,43.1489 -91.952,42.9749Q-89.0812,42.8009 -86.6454,42.4529L-87.3413,35.3194 Q-91.517,35.8414 -97.0846,35.8414Q-104.566,35.8414 -111.004,33.5796Q-117.441,31.3177 -122.226,26.7071Q-127.01,22.0964 -129.707,15.311Q-132.404,8.52547 -132.404,-0.695843L-62.9831,-0.695843 Q-62.6352,-1.73976 -62.6352,-2.78369Q-62.6352,-4.00159 -62.6352,-5.91545Z M-71.5085,-7.48133 L-131.882,-7.48133 Q-131.186,-12.179 -129.098,-17.4856Q-127.01,-22.7922 -123.27,-27.2288Q-119.529,-31.6655 -113.787,-34.6233Q-108.046,-37.5811 -100.042,-37.5811Q-90.647,-37.5811 -84.9925,-34.1013Q-79.3379,-30.6216 -76.2931,-25.75Q-73.2484,-20.8783 -72.3784,-15.8327Q-71.5085,-10.7871 -71.5085,-7.48133Z" fill="#4d4d4d" fill-opacity="1" />
		<path d="M36.0154,41.061 Q34.1016,36.5373 32.9706,31.2307Q31.8397,25.9242 31.8397,20.8785L31.8397,-42.4527 L23.3144,-42.4527 L23.3144,8.17749 Q23.3144,10.9613 22.7054,13.4841Q22.0965,16.0069 21.2265,17.9208Q17.9208,25.2282 10.4393,30.4478Q2.9579,35.6674 -6.61137,35.6674Q-13.5709,35.6674 -18.3555,33.2316Q-23.1401,30.7958 -26.1849,26.4461Q-29.2297,22.0964 -30.5346,16.0069Q-31.8395,9.91736 -31.8395,2.60991L-31.8395,-42.4527 L-40.3648,-42.4527 L-40.3648,4.34978 Q-40.3648,17.7468 -36.7981,25.4022Q-33.2314,33.0576 -28.1857,37.0593Q-23.1401,41.061 -17.8335,42.1049Q-12.5269,43.1489 -8.87321,43.1489Q-2.60968,43.1489 2.60993,41.496Q7.82953,39.8431 11.8312,37.1463Q15.8329,34.4495 18.7907,31.0568Q21.7485,27.664 23.6623,24.1843L24.0103,24.1843 Q24.0103,24.3583 24.1843,25.8372Q24.3583,27.316 24.7063,29.6649Q25.0542,32.0137 25.4022,33.9276Q26.0982,36.7113 27.0551,39.7561Q28.012,42.8009 28.012,42.8009Z" fill="#4d4d4d" fill-opacity="1" />
		<path d="M140.756,41.061 Q140.582,40.713 139.451,38.1032Q138.32,35.4934 136.928,31.3177Q135.536,27.1421 135.536,23.8363L135.536,-6.43741 Q135.536,-15.1368 133.622,-21.3133Q131.708,-27.4898 128.75,-31.7525Q125.793,-36.0152 122.139,-38.538Q118.485,-41.0608 114.831,-42.3657Q111.178,-43.6706 108.046,-44.1056Q104.914,-44.5405 103,-44.5405Q97.2588,-44.5405 92.2132,-43.0616Q87.1676,-41.5828 83.0789,-38.973Q78.9902,-36.3632 75.8584,-32.9704Q72.7266,-29.5777 70.8128,-25.75L70.4648,-25.75 L69.7689,-42.4527 L61.7655,-42.4527 Q62.1134,-37.4071 62.2874,-32.3615Q62.4614,-27.3158 62.4614,-22.2702L62.4614,41.061 L70.9868,41.061 L70.9868,-9.91714 Q70.9868,-11.831 71.4217,-13.9188Q71.8567,-16.0067 72.3787,-17.3986Q73.7706,-21.4003 76.5544,-24.967Q79.3381,-28.5337 82.9919,-31.3175Q86.6456,-34.1013 91.1692,-35.6672Q95.6929,-37.2331 100.739,-37.2331Q107.872,-37.2331 112.918,-34.7103Q117.963,-32.1875 121.095,-27.9248Q124.227,-23.6621 125.619,-18.0945Q127.011,-12.527 127.011,-6.43741L127.011,23.8363 Q127.011,29.5779 128.402,34.5365Q129.794,39.4951 130.925,41.844Q132.056,44.1928 132.23,44.5407Z" fill="#4d4d4d" fill-opacity="1" />
	</g>
</svg>